<svg width="91" height="55" viewBox="0 0 91 55" fill="none" xmlns="http://www.w3.org/2000/svg">
<path fill-rule="evenodd" clip-rule="evenodd" d="M17.9532 0.0374591C16.8876 0.204361 14.2009 0.963266 13.175 1.38728C9.26276 3.00423 5.98111 5.73066 3.51301 9.41428C1.73821 12.0631 0.725382 14.811 0.17292 18.4762C-0.483491 22.831 0.759853 28.1697 3.37674 32.2328C6.12909 36.5064 10.9579 39.9727 15.9625 41.2676L16.9341 41.519L16.8615 42.3395C16.8215 42.7907 16.6392 43.9496 16.4564 44.9148C15.9936 47.358 15.3271 48.7575 13.924 50.2326C12.1706 52.0762 10.4598 53.0953 7.28397 54.188C6.37752 54.4998 5.66954 54.8094 5.71047 54.8759C5.8264 55.0643 34.7502 55.0271 34.6877 54.8387C34.6601 54.7557 33.7495 54.3967 32.6641 54.041C30.4413 53.3127 29.4371 52.8201 28.3015 51.901C26.4312 50.3877 25.5653 48.4488 25.1528 44.8506C25.0717 44.1439 25.0244 43.1122 25.0475 42.5579L25.0896 41.5501L26.4361 41.1937C32.24 39.6577 37.3174 35.5023 39.8992 30.1756C41.4935 26.886 42.2266 23.4929 42.0759 20.0993C41.9388 17.0143 41.3247 14.7008 39.8677 11.7817C38.6798 9.40197 37.7913 8.16833 35.8648 6.22461C32.8507 3.18358 29.8773 1.50374 25.5609 0.403454C24.2785 0.0766825 23.878 0.0398936 21.2521 0.00865013C19.6599 -0.01015 18.1754 0.00269904 17.9532 0.0374591ZM21.6989 1.52254C22.2569 2.08303 22.6717 3.07308 22.7879 4.12196C22.9401 5.49411 22.2866 7.55698 21.4544 8.33225L21.0915 8.67039L20.689 8.197C19.8417 7.20019 19.2811 5.3717 19.4352 4.10709C19.5426 3.22443 20.0703 2.04921 20.6198 1.46817C20.8486 1.22633 21.0743 1.02859 21.1215 1.02859C21.1686 1.02859 21.4285 1.25081 21.6989 1.52254ZM15.7034 3.17817C16.7423 3.71066 17.9337 5.21643 18.3457 6.51811C18.568 7.22034 18.7824 8.48698 18.7557 8.94089C18.6954 9.96787 18.7003 9.95529 18.3752 9.95529C17.8176 9.95529 16.2226 9.04842 15.5039 8.32265C15.1245 7.93962 14.6117 7.22534 14.3641 6.73546C13.9379 5.89229 13.9138 5.76799 13.9138 4.41709C13.9138 2.55371 13.9491 2.46931 14.6281 2.70992C14.9161 2.81204 15.4 3.02276 15.7034 3.17817ZM28.1986 3.14206C28.429 4.3761 27.921 6.77306 27.2958 7.40104C27.1562 7.5413 27.042 7.71699 27.042 7.79151C27.042 8.258 24.9893 9.66193 23.9895 9.87928L23.5626 9.97206L23.4745 9.2536C23.3583 8.30642 23.6856 6.74817 24.2265 5.67386C24.8689 4.39775 26.0506 3.31099 27.2965 2.85045C28.0214 2.58238 28.0987 2.6074 28.1986 3.14206ZM10.8286 6.31942C12.338 6.88681 13.4754 8.20255 13.9081 9.88225C14.1284 10.7375 14.1677 11.285 14.034 11.6349C13.7624 12.3456 10.7957 11.1132 9.88228 9.91012C9.01434 8.76709 8.37732 6.79835 8.64688 6.0926C8.72 5.90122 8.84684 5.87849 9.4168 5.95437C9.79207 6.00442 10.4273 6.16861 10.8286 6.31942ZM33.5994 6.98514C33.3842 9.56238 31.6269 11.3285 28.6915 11.9178L28.2538 12.0056L28.2553 11.0818C28.2567 10.1893 28.4674 9.22276 28.8016 8.57625C29.542 7.14392 31.342 6.0807 33.087 6.04499L33.6788 6.03295L33.5994 6.98514ZM21.6557 10.7876C22.5355 12.0076 22.5546 13.6835 21.7083 15.4014C21.2443 16.3434 21.1767 16.4208 20.9765 16.2387C20.855 16.1284 20.5855 15.6999 20.3772 15.2866C19.942 14.4226 19.7801 12.9476 20.0221 12.0497C20.1892 11.4287 20.9093 10.2258 21.1137 10.2258C21.1888 10.2258 21.4328 10.4786 21.6557 10.7876ZM6.78281 10.7062C7.69317 10.9444 8.48921 11.3757 9.05581 11.938C9.62766 12.5054 10.2244 13.8793 10.3098 14.8247L10.383 15.6359L9.99404 15.6348C9.16905 15.6327 7.86323 15.3401 7.2219 15.0136C5.85293 14.3168 4.7954 12.8205 4.63369 11.3515C4.56852 10.7594 4.59289 10.6417 4.79176 10.5895C5.28134 10.4609 6.00764 10.5035 6.78281 10.7062ZM37.2607 10.7549C37.5098 10.9134 37.3619 12.0725 36.9916 12.8636C36.2209 14.5109 34.3181 15.6359 32.3033 15.6359H31.7878L31.8471 14.9935C31.9256 14.1429 32.3796 12.8342 32.784 12.2921C33.1991 11.7359 34.1941 11.0469 34.9049 10.8233C35.5445 10.6222 36.9865 10.5804 37.2607 10.7549ZM16.7761 11.435C18.0626 12.371 18.8348 13.9263 18.8435 15.5989C18.8464 16.1535 18.8189 16.6373 18.7824 16.674C18.746 16.7106 18.4462 16.6206 18.1163 16.4739C16.395 15.7091 15.5228 13.9538 15.7913 11.7946C15.9009 10.9142 16.0072 10.8754 16.7761 11.435ZM26.4619 11.9178C26.5503 12.3635 26.593 13.0019 26.5567 13.3366C26.4703 14.1385 25.9197 15.2657 25.4001 15.7048C24.7628 16.2435 23.6677 16.7639 23.5083 16.6038C23.4279 16.523 23.3992 15.9584 23.4372 15.2068C23.5312 13.3465 23.9994 12.421 25.3519 11.4209C26.0939 10.8723 26.2705 10.9513 26.4619 11.9178ZM13.0876 13.4329C13.6394 13.7149 14.636 14.6676 15.0238 15.2834C15.5274 16.0832 15.8662 17.2126 15.8662 18.0917C15.8662 18.5263 15.8296 18.882 15.7849 18.882C15.7402 18.882 15.2828 18.6599 14.7685 18.3885C12.7395 17.3174 11.9681 15.9369 12.0731 13.5642C12.094 13.0949 12.1236 13.0564 12.399 13.1417C12.5657 13.1934 12.8755 13.3244 13.0876 13.4329ZM30.1389 14.2617C30.1389 15.1761 30.0817 15.4374 29.7233 16.1577C29.4946 16.6173 29.0364 17.2581 28.7049 17.5818C28.0725 18.1992 26.7244 18.9515 26.5 18.8122C26.1564 18.5989 26.4283 17.0219 27.0264 15.7594C27.5503 14.6534 29.2046 13.2179 29.9706 13.2043C30.0913 13.2022 30.1389 13.502 30.1389 14.2617ZM5.97559 16.3276C6.92836 16.6836 8.02575 17.7146 8.59343 18.7873C8.85168 19.2752 9.03198 19.7057 8.99401 19.7437C8.82946 19.909 7.12293 20.0871 6.44336 20.0099C5.59656 19.9137 4.38984 19.3543 3.68118 18.7292C3.06597 18.1867 2.4851 17.1986 2.57599 16.8495C2.61423 16.7025 2.59053 16.6164 2.52348 16.6582C2.45629 16.6998 2.40135 16.6437 2.40135 16.5336C2.40135 16.3423 2.8873 16.1269 3.61319 15.9962C4.14989 15.8995 5.23907 16.0524 5.97559 16.3276ZM39.2774 16.2519C39.9044 16.4389 39.972 16.4945 39.8927 16.7591C39.5364 17.947 38.6864 18.9047 37.3873 19.5817C36.5836 20.0005 36.4537 20.0262 35.1209 20.0288C34.3433 20.0304 33.603 19.9694 33.4758 19.8934C33.2613 19.7653 33.2691 19.7016 33.5836 19.0198C33.9783 18.1641 34.6767 17.2672 35.29 16.8286C36.3321 16.0832 37.9349 15.8514 39.2774 16.2519ZM12.0707 18.1514C12.492 18.3576 13.1514 18.8491 13.5364 19.2438C14.3249 20.0525 15.3374 21.948 15.3727 22.6815L15.3949 23.1425L14.789 23.1035C13.8307 23.042 13.29 22.8453 12.5758 22.2987C11.3924 21.3928 10.7069 20.1443 10.3554 18.2545L10.2398 17.6329L10.7724 17.7047C11.0653 17.7442 11.6495 17.9452 12.0707 18.1514ZM31.8894 18.0617C31.8894 18.618 31.4641 20.3153 31.1833 20.8804C30.6103 22.0324 29.1499 22.977 27.6723 23.1512L26.8889 23.2436L26.9836 22.7197C27.3673 20.5963 29.1351 18.472 30.9203 17.9892C31.79 17.7541 31.8894 17.7616 31.8894 18.0617ZM24.9504 19.8338C25.0667 21.0247 24.6805 22.498 23.9456 23.6667C23.4163 24.5085 22.5965 25.3741 22.3284 25.3741C22.0689 25.3741 21.7339 23.8203 21.7308 22.6014C21.7281 21.5677 21.7808 21.2695 22.0803 20.624C22.5266 19.6624 23.3183 18.7753 24.0124 18.4593L24.551 18.2141L24.708 18.5867C24.7943 18.7918 24.9034 19.3529 24.9504 19.8338ZM17.9011 18.9207C18.8702 19.7456 19.6363 21.5639 19.6363 23.0393C19.6363 23.5516 19.2925 25.0905 19.1461 25.2332C18.9945 25.381 17.9772 24.0643 17.592 23.2214C16.9326 21.7791 16.7736 20.0745 17.1965 18.9834C17.3691 18.538 17.4437 18.5313 17.9011 18.9207ZM50.8074 20.435C48.2284 21.1344 46.536 22.4397 45.5567 24.4847C44.8369 25.988 44.6454 26.9404 44.6432 29.026C44.6411 31.1382 44.8552 32.2371 45.5523 33.693C46.1303 34.9004 46.8711 35.7472 48.0191 36.5134C49.3332 37.3903 50.3817 37.7169 52.1091 37.7877C53.3472 37.8385 53.7374 37.797 54.9367 37.4871C56.4402 37.0987 57.6462 36.5091 57.7216 36.1258C57.7736 35.8617 56.6807 33.1842 56.5464 33.2471C56.5004 33.2687 56.0688 33.4842 55.5875 33.726C52.8511 35.1002 50.1459 34.3674 49.0343 31.9509C48.6694 31.1578 48.6531 31.0356 48.6531 29.0936C48.6531 27.1436 48.6682 27.0321 49.0409 26.2216C50.0163 24.1002 52.0904 23.1798 54.3455 23.8678C54.8648 24.0263 55.6052 24.3692 55.9907 24.6298C56.3762 24.8905 56.7126 25.1036 56.738 25.1036C56.7635 25.1036 57.0026 24.4011 57.2695 23.5425C57.5364 22.6839 57.7886 21.8926 57.83 21.784C57.9297 21.5232 56.5576 20.8753 55.1283 20.5081C53.8791 20.1872 51.8477 20.1528 50.8074 20.435ZM62.7188 20.5388C62.716 20.5574 62.6579 22.1247 62.5895 24.0216C62.416 28.8321 62.0958 30.8363 61.2198 32.5957C60.6563 33.7274 60.4958 33.8776 59.7426 33.978L59.0883 34.0652V37.2938V40.5225H60.7546H62.4209L62.505 40.0998C62.5513 39.8673 62.5892 39.204 62.5892 38.6257V37.5741L63.2288 37.5117C63.5805 37.4774 65.662 37.4391 67.8543 37.4268L71.8403 37.4045L71.9265 38.321C71.9739 38.8252 72.0131 39.5266 72.0136 39.88L72.0146 40.5225H73.7674H75.5203L75.4842 37.3102C75.4567 34.861 75.4081 34.0939 75.2798 34.081C75.1873 34.0717 74.7782 34.0566 74.3709 34.0472L73.6304 34.0303V27.2677V20.505H68.1771C65.1778 20.505 62.7215 20.5203 62.7188 20.5388ZM77.4906 20.5948C77.4375 20.6483 77.4 24.4539 77.4072 29.0518L77.4206 37.4117H79.363H81.3053V33.8274V30.2432H81.6464C82.0103 30.2432 81.8607 30.0325 85.2683 35.349L86.5902 37.4117H88.7951C90.0078 37.4117 91 37.3803 91 37.342C91 37.3036 90.018 35.7973 88.8177 33.9945C87.6176 32.1917 86.2897 30.1902 85.8669 29.5468L85.0982 28.377L87.2076 25.4439C88.3678 23.8308 89.6395 22.0596 90.0338 21.5079L90.7506 20.505L88.5526 20.5064L86.3546 20.5076L84.823 22.8395C83.9805 24.122 83.011 25.6085 82.6686 26.143C82.1504 26.9517 81.9838 27.1163 81.6756 27.1236C81.4118 27.1299 81.3033 27.0643 81.2983 26.8957C81.2944 26.7655 81.2793 25.2896 81.2646 23.6158L81.238 20.5727L79.4127 20.5352C78.4088 20.5146 77.5438 20.5414 77.4906 20.5948ZM6.1777 21.7369C6.58838 21.9299 7.15915 22.2947 7.44622 22.5475C7.98697 23.0238 8.72983 23.9709 8.72983 24.184C8.72983 24.3664 7.9595 24.6546 7.00969 24.8276C5.50971 25.1008 4.0069 24.6348 2.91248 23.5573C2.4202 23.0727 1.75625 21.9195 1.8913 21.7838C2.47123 21.2013 4.97946 21.1738 6.1777 21.7369ZM39.7854 21.4707C40.1208 21.5555 40.4298 21.7157 40.4721 21.8266C40.588 22.1301 40.1337 22.8736 39.426 23.5385C38.2262 24.6659 36.9967 25.0562 35.0766 24.9193C34.4097 24.8718 33.8357 24.8044 33.8011 24.7697C33.6873 24.6555 34.0774 23.8297 34.5263 23.2342C35.0947 22.4801 35.9719 21.8105 36.7367 21.5467C37.4655 21.2956 38.9467 21.2585 39.7854 21.4707ZM11.742 23.3173C12.8498 23.8381 13.5669 24.4977 14.0346 25.4259C14.4454 26.2418 14.6655 27.7022 14.4022 27.8658C14.1261 28.037 12.6423 27.1093 11.8942 26.2976C11.1842 25.5272 10.4496 24.3578 10.0063 23.292L9.78749 22.766L10.3355 22.8399C10.6369 22.8805 11.2698 23.0954 11.742 23.3173ZM32.6972 23.0115C32.6972 23.5164 32.0921 24.9524 31.6513 25.4937C31.3858 25.8199 30.8913 26.2637 30.5527 26.48C29.9018 26.8956 28.1634 27.4923 28.0206 27.349C27.8759 27.2036 28.403 25.7442 28.8591 25.0279C29.4809 24.0514 30.4 23.357 31.5527 22.9926C32.3041 22.7552 32.6972 22.7617 32.6972 23.0115ZM69.8611 28.113C69.8617 30.3632 69.8999 32.6057 69.946 33.0963L70.0299 33.9883L67.3046 34.0846C65.8057 34.1374 64.5573 34.159 64.5307 34.132C64.504 34.1053 64.6523 33.6605 64.8602 33.1439C65.0681 32.6272 65.3133 31.9001 65.4052 31.5281C65.6584 30.5041 65.9431 27.9868 66.0425 25.8939L66.1315 24.0216H67.9958H69.8602L69.8611 28.113ZM26.2225 26.7505C26.0595 27.0721 25.5365 27.9088 25.0605 28.6097C24.0414 30.11 23.5219 31.1063 23.1823 32.2114C22.9666 32.9139 22.9363 33.4959 22.9436 36.803C22.9583 43.3951 23.1559 46.2882 23.7571 48.7053C24.2728 50.7788 25.1762 52.498 26.2223 53.3976C26.704 53.8118 26.7545 53.8998 26.547 53.9645C26.1416 54.0908 25.0018 53.9367 24.2334 53.6516C23.1745 53.259 21.8825 52.3631 21.0811 51.4657L20.3769 50.6773L19.367 51.5068C18.8116 51.963 17.8502 52.5754 17.2307 52.8677C16.2985 53.3075 15.9152 53.4114 15.009 53.4697C14.3383 53.5128 13.966 53.4919 14.0484 53.4156C14.1225 53.3472 14.5359 52.9963 14.9671 52.6361C16.7028 51.1864 18.0702 48.6993 18.6161 46.0002C19.264 42.7962 19.4985 40.0608 19.4391 36.3973C19.4076 34.458 19.3847 34.3062 18.9191 32.9587C18.6511 32.1833 18.055 30.8747 17.5943 30.0508C17.1335 29.2268 16.6112 28.2519 16.4335 27.8846C16.0586 27.1097 15.8955 26.3209 16.1102 26.3209C16.3714 26.3209 17.9374 27.7499 18.7481 28.7279C19.5106 29.6477 20.5789 31.3328 20.5789 31.6157C20.5789 31.69 20.6796 31.7312 20.8027 31.7071C20.9257 31.683 21.2614 31.2144 21.5486 30.6656C22.5509 28.75 24.2032 26.866 25.8718 25.7358L26.4361 25.3536L26.4776 25.7597C26.5007 25.9868 26.3884 26.4234 26.2225 26.7505ZM8.12593 26.4679C8.99495 26.6294 10.5434 27.3538 10.9235 27.7769C11.1577 28.0374 11.1526 28.0559 10.7545 28.3924C9.43727 29.5058 7.50883 29.9529 5.95943 29.5041C5.12004 29.261 3.8946 28.6226 3.61305 28.2819C3.10112 27.6623 5.26303 26.3603 6.85363 26.33C7.11782 26.325 7.69034 26.387 8.12593 26.4679ZM37.533 26.9916C38.519 27.4921 38.8598 27.8587 38.6145 28.1557C38.2567 28.5886 37.2444 29.1885 36.3302 29.5094C34.6849 30.0868 33.3728 29.9055 31.8145 28.8858C30.9754 28.3366 30.7232 28.0992 31.1558 28.2661C31.2708 28.3103 31.3326 28.2942 31.2933 28.2304C31.1178 27.9453 33.8554 26.5937 34.1889 26.8008C34.2919 26.8648 34.3203 26.8479 34.2637 26.7559C34.1458 26.5644 34.9374 26.4691 35.9845 26.5491C36.4932 26.5879 37.0523 26.7476 37.533 26.9916ZM13.7662 31.0288C14.2547 31.2584 14.6544 31.5014 14.6544 31.5687C14.6544 31.7915 12.8681 33.2038 12.1051 33.5845C11.4307 33.921 11.2135 33.9586 9.94166 33.9601C8.74262 33.9615 8.42094 33.9132 7.82432 33.6427C7.00929 33.2732 7.01104 33.2582 8.00138 32.1518C8.65927 31.4168 9.81927 30.7265 10.7084 30.5409C11.5228 30.3711 12.8004 30.5749 13.7662 31.0288ZM32.0913 30.8164C32.5357 31.0007 32.8848 31.2188 32.8672 31.3011C32.8495 31.3834 32.9123 31.421 33.0065 31.3846C33.2096 31.3065 33.9837 32.0336 34.2519 32.5546C34.4897 33.0165 34.4069 33.0932 33.1579 33.5674C32.3296 33.8818 32.0836 33.9146 30.9468 33.8619C29.918 33.8143 29.4964 33.727 28.7924 33.4159C27.9552 33.0458 26.5034 32.1694 26.5034 32.034C26.5034 31.8676 27.442 31.1381 27.9845 30.8829C29.2349 30.2948 30.7727 30.2699 32.0913 30.8164Z" fill="#7B4538"/>
</svg>
