<svg width="1440" height="3087" viewBox="0 0 1440 3087" fill="none" xmlns="http://www.w3.org/2000/svg">
<path d="M-52.0481 2278.27C-46.7328 2350.76 -40.5997 2416.84 -31.1956 2502.64C-19.7472 2605.7 41.9927 3083.55 44.037 3086.51C48.9435 3092.42 49.3524 3093.41 3.14973 2741.81C-57.7723 2275.8 -65.9498 2066.22 -33.24 1797.46C5.19409 1483.83 9.6917 1440.44 19.5046 1287.07C39.5394 977.879 38.7217 661.782 17.4603 276.153C6.42071 80.3804 0.287617 0 -3.39224 0C-5.4366 0 -5.84547 5.91772 -5.02773 13.3147C-3.80111 21.2046 -0.121254 68.0522 3.14973 118.352C44.8548 752.025 36.6773 1204.23 -25.4714 1691.93C-51.6392 1897.08 -52.457 1907.43 -54.0925 2071.15C-54.9102 2156.46 -53.6836 2249.66 -52.0481 2278.27Z" fill="#63372C" fill-opacity="0.69"/>
<path d="M-4.61868 2396.62C3.96764 2482.91 22.3669 2582.53 57.9389 2735.89C93.5108 2887.78 108.639 2965.2 117.634 3037.19C120.905 3062.34 124.585 3084.53 125.812 3086.01C129.492 3090.45 128.265 3077.14 119.679 3015.5C109.866 2943.99 98.0084 2883.34 68.1607 2756.6C3.55877 2480.94 -10.3429 2374.43 -5.84531 2174.71C-3.39207 2053.89 3.55877 1966.61 24.0024 1797.46C64.4808 1461.64 70.6139 1406.41 76.3381 1331.45C80.018 1286.58 84.5156 1196.83 86.9688 1131.74C91.4664 995.632 92.6931 0.000244141 87.7866 0.000244141C86.1511 0.000244141 84.9245 250.018 84.9245 555.759C84.9245 1244.66 83.6979 1275.73 33.8154 1673.19C9.28299 1870.94 -0.938828 1968.09 -6.66306 2055.86C-12.7961 2146.11 -11.5695 2327.09 -4.61868 2396.62Z" fill="#63372C" fill-opacity="0.69"/>
<path d="M44.4461 2196.9C52.2147 2344.34 70.2051 2456.29 131.945 2739.34C151.98 2831.56 175.285 2946.95 183.463 2995.77C191.231 3044.59 199 3085.52 199.818 3086.51C209.222 3097.85 177.739 2923.77 136.034 2732.93C57.9389 2375.91 47.3082 2291.58 51.3969 2054.88C53.8502 1902.99 59.1655 1834.45 93.102 1543.5C129.083 1233.81 128.674 1239.73 131.945 823.529C133.989 599.648 137.26 438.394 139.713 419.162C151.98 329.412 169.97 264.812 201.453 194.787C214.946 164.706 234.572 120.324 244.794 96.1609C263.193 51.2861 277.095 0.000488281 270.962 0.000488281C268.917 0.000488281 266.464 8.87671 264.829 19.7256C261.558 41.9165 239.07 100.106 201.862 179.993C161.384 267.771 145.029 328.919 133.58 438.887C127.856 489.679 126.63 560.69 126.221 838.323C125.403 1209.65 124.994 1217.54 96.7818 1464.6C66.1163 1734.83 58.7566 1805.35 52.6236 1886.23C46.0816 1971.54 41.584 2143.15 44.4461 2196.9Z" fill="#63372C" fill-opacity="0.69"/>
<path d="M167.108 2519.9C170.379 2551.46 182.645 2635.79 194.911 2707.29C248.065 3019.93 260.331 3087 263.193 3087C264.829 3087 265.237 3083.05 264.42 3078.12C256.242 3037.69 187.143 2632.83 181.01 2588.94C163.019 2460.72 160.975 2373.44 171.197 2184.57C176.512 2081.51 179.374 1766.4 185.916 586.826C187.143 392.532 187.552 380.697 195.729 354.561C205.951 323.001 222.715 290.947 260.74 231.772C275.459 208.594 294.676 174.075 303.672 155.336C325.751 107.503 356.007 -5.91748 344.559 2.46582C342.106 3.94507 340.47 10.3557 340.47 16.2734C340.47 34.0261 314.302 119.338 298.765 153.364C290.588 170.623 267.282 211.06 246.838 243.114C205.542 308.7 192.049 338.781 185.507 382.177C182.236 402.395 179.374 665.234 176.921 1232.83C173.65 1843.82 171.197 2081.51 167.108 2162.38C159.748 2297.99 159.748 2445.93 167.108 2519.9Z" fill="#63372C" fill-opacity="0.69"/>
<path d="M220.67 1718.56C230.074 2059.81 257.469 2477.49 299.583 2926.73C312.667 3063.82 315.529 3088.97 317.982 3086.01C319.209 3085.03 312.667 3006.62 303.671 2911.45C224.759 2067.21 204.315 1451.78 236.207 892.567C251.745 626.77 269.326 464.036 291.405 383.656C338.017 217.471 458.225 119.338 562.488 162.24C639.356 194.294 690.056 283.057 726.855 451.215C765.698 628.742 780.008 665.234 871.187 809.721C896.128 849.665 924.749 897.499 934.971 915.744C992.213 1023.25 1029.83 1154.91 1050.68 1324.06C1061.31 1407.89 1061.31 1753.08 1050.68 1858.61C1031.47 2052.41 1002.84 2151.53 903.488 2367.52C825.802 2536.67 796.772 2627.4 775.511 2771.4C764.062 2846.35 766.107 3087 777.555 3087C779.6 3087 778.782 3074.18 776.737 3058.4C770.604 3016.98 771.013 2850.79 777.555 2796.05C793.91 2655.51 828.664 2543.08 911.665 2362.59C1027.79 2110.6 1053.14 2000.14 1064.58 1688.48C1075.62 1389.64 1047.82 1170.2 976.267 993.659C951.326 932.018 928.838 890.595 865.054 788.517C790.23 669.179 771.422 623.811 740.757 489.186C716.224 380.204 705.185 342.233 684.332 293.413C610.326 120.324 463.95 96.6538 353.145 239.662C307.76 297.851 276.277 394.012 261.149 520.253C245.612 649.947 228.848 896.019 221.897 1097.22C218.217 1200.77 217.399 1608.1 220.67 1718.56Z" fill="#63372C" fill-opacity="0.69"/>
<path d="M263.193 1982.39C268.099 2081.51 276.686 2167.31 328.613 2625.92C378.904 3071.71 380.948 3089.47 383.81 3085.52C385.037 3084.53 380.131 3034.73 373.589 2975.55C271.779 2080.52 273.415 2096.79 266.464 1940.47C257.06 1732.86 273.824 828.953 291.814 589.291C302.445 446.777 324.115 363.93 367.864 298.837C435.737 197.745 537.956 183.938 599.695 266.784C633.223 311.659 654.075 372.807 681.879 506.445C689.647 545.403 702.731 598.168 710.5 624.797C733.397 701.725 748.934 731.313 858.921 903.909C920.661 1001.55 946.828 1076.01 964.819 1208.17C970.543 1251.07 971.77 1290.03 971.361 1432.55C970.134 1772.81 951.735 1940.96 896.537 2106.66C876.502 2166.82 857.285 2208.24 797.181 2319.69C679.834 2538.64 660.209 2607.18 618.504 2951.39C609.917 3024.37 603.375 3085.03 604.193 3086.51C607.464 3089.96 609.508 3076.64 618.504 2998.24C643.445 2778.3 664.297 2656 690.874 2569.21C714.998 2490.8 738.303 2440.01 814.354 2300.46C890.813 2159.42 930.065 2043.53 951.735 1896.09C977.085 1720.53 986.489 1326.03 968.09 1193.38C949.282 1057.27 923.114 991.686 827.029 843.254C737.486 704.684 719.495 661.782 686.376 502.993C649.578 328.425 620.139 261.359 564.941 224.375C544.497 210.567 539.591 209.581 501.975 209.581C463.95 209.581 459.043 210.567 433.693 225.854C396.077 248.045 358.869 292.92 337.608 343.219C293.041 446.777 286.09 514.335 270.961 973.934C259.513 1326.52 255.424 1835.43 263.193 1982.39Z" fill="#63372C" fill-opacity="0.69"/>
<path d="M302.036 1585.42C317.164 1893.13 338.426 2048.96 399.757 2305.39C442.688 2484.39 447.186 2523.84 450.457 2753.15L452.91 2935.12L464.359 2946.95C485.211 2968.65 508.926 2949.42 516.694 2905.03C519.556 2889.75 525.689 2858.68 531.005 2836.49C536.32 2813.81 543.68 2761.53 546.951 2720.6C554.719 2628.88 559.217 2597.81 569.439 2561.82C582.523 2515.46 613.188 2451.35 653.667 2383.8C752.205 2220.08 777.555 2166.32 806.176 2059.32C827.029 1982.39 839.704 1907.92 855.65 1772.81C862.601 1713.14 875.276 1610.07 884.271 1543.5C910.03 1348.71 910.848 1339.34 910.439 1237.76C910.03 1149.98 909.212 1137.16 899.399 1092.29C878.547 998.097 850.743 943.853 758.747 818.104C705.594 745.614 683.923 710.109 664.297 662.768C646.307 619.866 639.765 584.36 632.814 490.172C624.637 375.766 614.006 336.315 580.478 292.427C550.631 253.469 516.694 240.648 475.807 253.469C400.165 276.647 354.372 362.945 338.426 512.363C331.475 576.47 319.209 779.147 309.396 976.4C303.672 1096.72 298.765 1516.38 302.036 1585.42ZM307.76 1171.19C315.938 915.745 335.972 563.649 347.012 483.269C367.047 340.26 425.107 255.935 503.61 256.428C557.173 256.921 598.469 304.755 616.459 387.601C619.73 403.381 624.637 445.791 627.09 482.775C637.721 643.536 655.302 687.918 767.742 840.789C863.01 969.989 893.675 1043.47 905.123 1172.17C912.483 1255.51 906.35 1342.3 880.182 1533.64C873.64 1580.98 862.601 1669.74 855.65 1730.89C833.162 1925.68 813.536 2030.22 779.6 2129.83C758.338 2190.98 735.85 2235.36 670.022 2344.84C604.193 2453.33 570.257 2527.79 557.582 2589.43C553.084 2609.65 546.542 2663.89 542.862 2709.26C539.182 2757.59 532.231 2808.87 526.507 2832.54C521.601 2854.24 515.059 2884.82 512.606 2899.61C509.743 2914.4 504.019 2931.66 499.113 2937.58C487.664 2952.38 469.265 2952.38 462.723 2938.07C459.043 2930.18 456.59 2869.53 454.546 2741.81C450.866 2510.04 447.595 2481.93 401.392 2289.61C319.618 1946.39 293.45 1634.24 307.76 1171.19Z" fill="#63372C" fill-opacity="0.69"/>
<path d="M356.825 1450.3C366.229 1704.75 380.948 1833.95 412.841 1944.91C448.413 2069.67 491.344 2131.31 547.36 2139.2C585.385 2144.13 609.508 2123.42 646.716 2054.38C714.998 1927.65 727.673 1876.86 737.077 1703.77C742.801 1597.25 747.299 1572.1 781.644 1449.31C824.984 1295.95 830.709 1242.69 814.354 1147.52C797.181 1043.96 771.013 980.344 670.43 796.9C630.361 723.423 590.7 646.988 582.932 626.77C563.306 577.95 560.853 539.485 573.119 472.42C586.203 399.436 584.158 376.752 562.079 348.644C538.773 318.563 494.615 304.262 460.679 315.111C394.032 336.809 372.771 415.71 395.259 559.211C410.796 658.823 409.978 693.342 389.944 756.956C369.5 822.543 365.82 843.747 360.914 934.483C355.189 1039.03 352.736 1341.32 356.825 1450.3ZM365.411 968.016C369.909 850.651 373.589 825.008 391.988 769.778C417.338 693.342 418.156 675.59 398.939 549.841C386.264 465.516 387.49 422.12 403.845 381.684C417.338 348.644 432.875 332.864 461.496 322.508C498.295 309.686 535.094 322.508 560.035 357.027C578.434 382.177 579.661 401.902 567.395 475.378C549.404 578.936 555.946 601.127 658.982 787.53C757.929 967.03 785.324 1029.66 804.541 1121.87C828.255 1234.8 822.94 1286.58 770.604 1469.53C744.028 1562.73 738.303 1596.27 730.944 1716.1C721.131 1872.42 711.727 1912.86 661.026 2014.44C606.237 2124.41 581.705 2146.11 530.596 2127.86C462.314 2104.19 405.481 1961.18 381.357 1752.09C360.096 1567.66 353.963 1253.54 365.411 968.016Z" fill="#63372C" fill-opacity="0.69"/>
<path d="M404.254 1287.07C411.614 1446.35 435.329 1583.94 473.354 1684.54C508.926 1778.72 535.502 1768.37 602.966 1634.73C711.318 1419.72 741.165 1324.55 741.165 1194.86C741.165 1042.48 688.012 866.924 619.321 793.448C588.656 760.901 560.853 747.093 524.463 747.093C467.221 747.587 435.329 781.613 420.2 859.034C410.387 910.813 399.757 1189.43 404.254 1287.07ZM414.067 986.262C421.018 851.637 430.013 813.173 461.905 779.147C493.797 745.614 537.547 742.162 582.114 769.777C670.022 823.529 744.028 1041 735.441 1220.5C730.126 1337.37 703.14 1421.7 611.553 1604.16C559.217 1709.19 548.995 1725.96 533.867 1734.83C521.192 1742.23 518.739 1742.23 508.926 1735.33C474.989 1712.64 427.969 1534.62 414.476 1375.84C409.57 1316.17 409.161 1081.93 414.067 986.262Z" fill="#63372C" fill-opacity="0.69"/>
<path d="M445.55 1176.12C449.639 1286.58 462.314 1396.05 474.989 1431.56C517.103 1549.91 631.179 1524.76 669.204 1388.66C678.608 1356.11 694.963 1240.22 698.234 1183.51C701.505 1129.27 694.963 1041 683.514 987.741C663.071 889.608 614.415 827.967 552.266 820.077C523.645 816.625 495.842 830.433 483.984 853.61C460.27 900.457 441.053 1062.2 445.55 1176.12ZM455.363 1013.38C461.087 958.647 476.625 881.718 486.846 861.5C512.605 808.242 586.611 816.625 632.405 878.266C666.751 924.621 687.194 999.083 691.692 1097.22C696.598 1208.17 678.199 1361.04 652.44 1422.19C636.494 1459.17 600.513 1493.69 569.848 1501.09C537.547 1508.49 496.251 1476.43 480.304 1431.07C456.999 1365.97 443.097 1133.21 455.363 1013.38Z" fill="#63372C" fill-opacity="0.69"/>
<path d="M471.718 1229.87C480.714 1313.7 498.704 1371.89 519.965 1387.18C535.094 1397.53 562.079 1398.03 580.07 1387.67C599.695 1376.33 622.592 1343.29 640.583 1300.39C654.484 1267.84 656.12 1258.96 658.164 1215.07C663.071 1104.61 633.223 958.647 597.651 920.183C579.252 899.964 567.395 895.033 544.089 898.978C512.197 903.909 495.433 927.58 483.984 981.331C468.447 1056.29 463.541 1151.95 471.718 1229.87ZM475.398 1077.49C481.94 1007.96 495.024 948.784 507.29 931.031C519.148 914.265 538.773 902.43 555.537 902.43C572.301 902.43 595.607 920.676 607.873 943.36C633.632 991.193 652.849 1098.2 652.849 1191.9V1256.99L636.903 1294.47C602.966 1374.85 562.488 1406.9 524.054 1382.74C488.073 1360.55 463.541 1204.72 475.398 1077.49Z" fill="#63372C" fill-opacity="0.69"/>
<path d="M488.073 1209.16C493.797 1257.48 508.926 1284.61 537.547 1298.91C568.212 1314.69 594.789 1294.47 610.326 1244.17C639.356 1150.47 618.912 1016.34 571.483 989.221C552.675 978.372 537.547 982.317 521.192 1002.54C490.117 1041 477.442 1121.38 488.073 1209.16ZM496.251 1076.01C509.334 1001.06 552.266 968.016 584.158 1008.45C607.873 1039.03 616.05 1073.05 616.05 1146.53C616.459 1202.25 615.233 1214.09 607.055 1238.75C601.74 1254.03 592.336 1273.76 585.385 1282.63C574.345 1296.93 571.892 1297.92 552.675 1295.95C529.369 1292.99 516.285 1280.66 503.201 1250.09C488.891 1217.54 486.029 1135.19 496.251 1076.01Z" fill="#63372C" fill-opacity="0.69"/>
<path d="M506.064 1181.05C515.468 1224.44 542.862 1239.73 571.892 1218.03C591.109 1203.73 599.695 1173.16 597.242 1130.26C594.38 1086.37 582.114 1052.34 565.35 1043.47C538.365 1030.15 516.694 1049.38 506.472 1097.22C498.704 1132.23 498.704 1148.01 506.064 1181.05ZM512.606 1089.33C519.556 1064.67 535.911 1045.44 549.813 1045.44C583.749 1045.44 606.237 1133.71 586.203 1186.97C578.434 1207.68 561.261 1222.97 546.133 1222.97C534.685 1222.97 520.374 1208.66 513.832 1191.4C507.29 1172.67 506.472 1112.01 512.606 1089.33Z" fill="#63372C" fill-opacity="0.69"/>
<path d="M528.552 1157.38C533.867 1172.67 546.133 1179.57 558.399 1174.14C576.799 1165.76 579.661 1126.8 563.306 1107.08C551.448 1092.29 548.586 1092.29 537.547 1103.13C527.734 1113.49 522.827 1141.6 528.552 1157.38ZM537.547 1110.53C549.404 1096.23 569.439 1112.01 569.439 1135.19C569.439 1155.41 562.488 1168.72 551.857 1168.72C537.956 1168.72 532.64 1159.35 532.64 1136.67C532.64 1125.32 534.685 1113.98 537.547 1110.53Z" fill="#63372C" fill-opacity="0.69"/>
<path d="M603.375 54.2444C680.243 149.912 724.811 241.634 761.609 380.204C818.034 593.237 829.073 624.304 880.591 710.602C944.784 817.118 975.041 874.814 1000.8 938.921C1078.49 1131.74 1126.73 1411.83 1132.46 1701.3C1137.77 1968.58 1103.84 2167.8 1020.43 2357.17C901.853 2627.9 887.951 2674.74 887.951 2805.92C887.951 2872.98 898.582 2944.98 917.39 3002.18C931.7 3045.58 949.691 3087 953.779 3087C955.415 3087 950.508 3072.21 942.74 3054.45C910.439 2981.47 892.448 2891.72 892.448 2803.45C892.448 2682.14 910.848 2618.03 1007.75 2400.56C1083.8 2230.43 1119.37 2088.41 1134.09 1902.01C1141.86 1800.42 1136.55 1583.44 1123.87 1465.09C1101.38 1260.44 1067.45 1101.65 1017.56 966.537C990.169 892.567 959.912 831.912 908.803 747.094C836.433 627.263 822.122 592.25 782.053 436.421C743.21 284.537 727.673 242.621 679.426 154.843C652.031 105.53 569.03 -5.91748 564.124 0C562.897 1.47949 580.887 25.6428 603.375 54.2444Z" fill="#63372C" fill-opacity="0.69"/>
<path d="M719.495 29.5881C752.614 79.3944 787.777 163.227 810.265 245.579C815.171 262.346 831.117 332.371 845.837 400.916C893.675 624.304 910.848 675.097 987.716 820.077C1042.5 923.141 1058.86 960.126 1082.17 1028.67C1104.24 1093.27 1121.42 1166.26 1135.73 1252.06C1150.45 1340.82 1156.17 1391.62 1172.53 1578.02C1195.83 1841.35 1201.56 1872.91 1231.81 1897.08C1249.39 1911.87 1275.97 1912.36 1290.69 1898.06C1305.82 1883.76 1339.76 1796.97 1352.02 1740.75C1357.75 1715.11 1388.41 1550.9 1419.89 1375.84C1493.49 969.496 1512.71 882.212 1550.73 780.133C1557.68 762.874 1563 744.628 1563 740.19C1562.59 727.368 1528.25 826.981 1510.26 893.06C1487.77 976.893 1478.36 1024.23 1410.08 1400.99C1376.96 1581.96 1345.48 1747.16 1339.76 1768.37C1325.44 1822.61 1302.55 1876.86 1288.24 1891.16C1260.84 1919.27 1219.55 1894.61 1206.87 1842.83C1200.33 1816.2 1191.74 1739.77 1178.66 1590.35C1157.4 1348.22 1145.54 1256.5 1119.37 1142.58C1092.39 1023.74 1064.99 954.209 986.489 806.269C916.163 673.124 900.217 625.783 853.197 410.285C817.216 244.593 808.63 212.047 780.008 140.05C754.658 75.4493 708.865 -7.88977 703.14 0.000366211C702.323 1.47974 709.273 14.7942 719.495 29.5881Z" fill="#63372C" fill-opacity="0.69"/>
<path d="M811.083 7.89038C818.034 12.8217 862.601 87.2844 880.591 123.776C921.07 205.143 948.055 292.92 996.711 496.09C1040.05 675.59 1051.09 713.561 1100.56 855.089C1147.59 987.248 1160.26 1029.16 1180.7 1119.9C1202.37 1215.57 1217.09 1258.96 1233.86 1276.22C1260.43 1304.82 1282.51 1300.88 1303.77 1263.89C1317.27 1239.73 1352.43 1128.28 1374.92 1038.04C1425.21 835.364 1453.01 741.176 1487.36 657.344C1506.17 611.483 1530.7 557.238 1542.15 536.034C1553.6 514.829 1563 495.104 1563 491.652C1562.59 481.789 1520.07 564.635 1493.9 625.783C1451.79 724.41 1424.8 812.68 1381.46 991.193C1347.12 1132.72 1309.5 1250.09 1291.1 1274.25C1267.38 1304.82 1229.77 1279.68 1211.78 1220.5C1206.46 1204.23 1195.42 1159.84 1186.84 1121.87C1165.58 1028.67 1151.67 982.317 1108.33 860.514C1059.27 722.437 1045.37 675.59 1002.84 498.063C948.873 274.674 927.203 206.129 882.227 115.886C856.876 65.0936 816.398 0.000244141 809.856 0.000244141C805.358 0.000244141 805.767 3.94531 811.083 7.89038Z" fill="#63372C" fill-opacity="0.69"/>
<path d="M907.168 27.1223C927.612 66.5728 967.681 166.678 988.534 231.772C1012.66 306.234 1036.78 398.45 1082.17 592.25C1156.99 910.32 1196.24 1005.99 1252.26 1005.99C1284.56 1005.99 1300.91 956.674 1313.59 823.529C1327.9 667.699 1344.66 628.742 1418.67 578.443C1467.73 545.403 1472.64 535.047 1477.95 457.626C1480 424.093 1485.31 379.218 1489.81 357.52C1498.81 314.618 1525.38 232.758 1548.69 177.527C1556.87 158.295 1563 140.049 1562.18 137.09C1560.14 130.187 1518.43 237.689 1500.03 296.372C1483.68 349.63 1473.05 414.723 1473.05 460.584C1473.05 521.733 1460.78 544.91 1411.31 576.963C1342.21 621.345 1320.54 673.124 1307.45 826.488C1298.05 935.47 1285.38 984.29 1262.48 997.111C1248.17 1005 1233.86 998.59 1213 975.413C1176.62 934.976 1144.72 834.871 1078.08 552.307C1034.33 367.383 1010.61 279.605 983.627 199.718C955.824 117.365 896.537 -17.2595 896.946 2.4657C896.946 4.93134 901.444 16.2734 907.168 27.1223Z" fill="#63372C" fill-opacity="0.69"/>
<path d="M964.41 2836.49C967.272 2857.2 975.859 2896.16 982.809 2922.79C995.893 2973.09 1041.28 3087 1048.23 3087C1050.27 3087 1046.18 3075.16 1039.23 3061.36C984.854 2949.42 955.006 2808.87 966.046 2713.21C975.859 2627.4 1003.66 2551.46 1081.35 2401.55C1131.23 2304.89 1153.72 2254.1 1172.53 2195.42C1186.43 2152.52 1204.42 2130.33 1225.68 2130.33C1254.3 2130.33 1260.84 2151.04 1259.62 2235.86C1258.8 2306.87 1262.07 2321.66 1283.33 2341.88C1301.73 2359.14 1311.95 2359.63 1337.71 2344.84C1360.61 2332.02 1361.83 2331.52 1374.51 2339.41C1388 2348.29 1394.14 2361.11 1413.76 2424.73C1427.25 2469.11 1450.56 2512.5 1480.41 2550.97C1503.71 2580.55 1558.5 2630.36 1562.18 2625.92C1564.64 2622.96 1566.27 2624.44 1536.42 2600.28C1503.71 2573.65 1457.1 2513.49 1438.7 2474.53C1430.93 2457.27 1417.85 2421.77 1409.67 2396.12C1390.05 2331.52 1373.28 2317.22 1339.35 2336.95C1316.86 2350.26 1301.32 2350.26 1287.01 2336.45C1268.61 2318.7 1264.52 2299.96 1264.52 2227.97C1264.52 2171.26 1263.3 2160.41 1256.35 2146.11C1245.71 2125.39 1231 2118.49 1212.6 2125.89C1193.79 2133.28 1180.7 2154.49 1162.71 2207.25C1143.5 2263.47 1119.37 2317.22 1075.62 2401.55C1024.92 2498.69 1005.3 2541.6 988.534 2591.4C959.913 2674.25 952.144 2755.12 964.41 2836.49Z" fill="#63372C" fill-opacity="0.69"/>
<path d="M985.672 36.9849C1025.33 131.666 1051.09 217.471 1097.29 409.299C1145.95 611.483 1156.99 650.44 1172.94 669.179C1197.88 700.246 1226.09 684.959 1251.85 626.77C1268.2 589.785 1279.24 578.936 1308.68 571.539C1321.36 568.58 1336.89 562.663 1343.03 559.211C1375.33 538.992 1394.14 479.323 1464.46 167.665C1475.91 117.365 1489.81 60.162 1495.54 39.9436C1501.26 19.7253 1504.94 2.4657 1503.71 0.986267C1499.62 -3.94501 1477.14 84.8185 1440.75 248.045C1401.09 425.572 1376.15 512.363 1357.75 536.033C1345.07 552.8 1332.4 560.197 1304.59 566.608C1275.15 574.005 1263.3 585.84 1248.17 620.852C1234.27 652.906 1229.36 660.796 1215.46 672.138C1200.74 684.466 1191.74 682.493 1177.02 664.248C1161.49 646.002 1149.63 605.072 1107.11 426.558C1059.27 227.827 1032.69 136.104 995.893 46.8475C975.859 -0.986267 975.041 -2.46564 972.588 0.493164C971.77 1.47943 977.494 17.7527 985.672 36.9849Z" fill="#63372C" fill-opacity="0.69"/>
<path d="M1039.64 2845.37C1051.91 2916.38 1073.58 2982.95 1107.52 3056.43C1131.64 3108.2 1127.14 3087.99 1101.38 3027.33C1059.27 2929.69 1035.55 2828.6 1035.55 2747.73C1035.55 2639.73 1083.8 2528.28 1149.22 2486.37C1196.65 2455.79 1241.22 2448.89 1284.56 2465.16C1317.27 2477.49 1333.21 2492.28 1361.43 2538.64C1391.27 2587.46 1421.94 2622.47 1462.83 2655.51C1502.08 2687.07 1558.5 2724.06 1561.36 2720.6C1562.59 2719.62 1546.24 2707.29 1525.38 2693.48C1449.33 2644.17 1404.77 2598.8 1360.61 2527.3C1339.35 2493.27 1331.99 2485.38 1308.27 2471.08C1242.44 2431.14 1161.08 2451.35 1102.61 2521.87C1072.76 2557.87 1047 2618.03 1037.6 2671.78C1029.42 2719.62 1030.24 2793.59 1039.64 2845.37Z" fill="#63372C" fill-opacity="0.69"/>
<path d="M1084.21 152.871C1176.21 429.024 1180.7 439.38 1217.5 456.146C1255.94 473.899 1287.01 448.749 1317.27 374.287C1338.12 322.508 1444.43 0.000213623 1440.34 0.000213623C1438.7 0.000213623 1414.99 69.5317 1387.18 153.857C1359.79 238.676 1327.9 330.891 1316.86 359C1277.2 459.598 1236.72 481.789 1192.56 427.052C1174.16 403.381 1165.98 382.177 1088.71 148.926C1044.55 15.7804 1035.15 -9.36926 1035.55 2.95901C1035.55 5.42465 1057.63 72.9836 1084.21 152.871Z" fill="#63372C" fill-opacity="0.69"/>
<path d="M1094.84 2796.05C1103.84 2836.49 1134.5 2907.99 1156.99 2941.03C1197.88 3001.69 1245.31 3025.85 1314.81 3021.91C1364.29 3018.95 1392.09 3007.61 1427.25 2976.54C1482.45 2927.23 1502.49 2843.39 1476.32 2770.41C1463.64 2734.41 1417.44 2686.08 1323.4 2610.14C1249.8 2550.47 1237.95 2543.08 1219.55 2540.61C1175.39 2535.68 1129.59 2575.13 1105.06 2639.24C1093.21 2669.81 1091.16 2680.66 1089.93 2721.59C1089.12 2753.15 1090.75 2777.81 1094.84 2796.05ZM1097.29 2683.13C1111.2 2610.14 1164.76 2544.56 1210.55 2544.56C1231 2544.56 1245.71 2553.93 1316.04 2611.13C1455.47 2725.04 1481.23 2759.56 1481.23 2834.02C1481.23 2883.34 1470.19 2917.36 1442.79 2950.9C1375.33 3034.73 1252.26 3041.14 1182.34 2965.2C1148.81 2928.71 1106.29 2836 1096.89 2779.78C1092.39 2750.19 1092.39 2708.28 1097.29 2683.13Z" fill="#63372C" fill-opacity="0.69"/>
<path d="M1143.91 2796.05C1157.81 2856.21 1177.43 2885.31 1219.55 2908.98C1239.99 2920.82 1246.53 2921.8 1295.19 2921.8C1345.07 2921.8 1349.98 2920.82 1372.87 2907.99C1402.31 2891.23 1414.99 2878.41 1422.76 2855.72C1430.12 2835.01 1427.25 2817.75 1408.45 2774.85C1361.43 2665.37 1253.89 2603.73 1183.16 2646.14C1152.08 2664.88 1140.23 2688.55 1139 2733.92C1138.18 2754.14 1140.63 2780.27 1143.91 2796.05ZM1154.13 2685.59C1159.03 2675.73 1171.3 2661.92 1181.11 2655.02C1248.58 2607.18 1361.43 2671.78 1405.99 2783.72C1425.62 2832.54 1424.8 2851.28 1402.31 2877.42C1376.96 2906.51 1347.93 2916.87 1291.1 2916.87C1251.44 2916.87 1243.67 2915.39 1223.64 2904.05C1210.96 2897.14 1194.2 2884.32 1186.02 2875.45C1147.59 2835.01 1130.41 2731.45 1154.13 2685.59Z" fill="#63372C" fill-opacity="0.69"/>
<path d="M1178.25 2783.72C1187.25 2807.89 1214.23 2837.97 1238.36 2850.3C1283.33 2873.97 1336.48 2878.9 1363.47 2862.13C1409.26 2834.02 1371.24 2737.86 1296.41 2692.99C1252.26 2666.36 1196.24 2673.76 1178.66 2708.28C1168.44 2728.49 1168.44 2757.59 1178.25 2783.72ZM1183.97 2711.73C1195.01 2692 1213 2683.13 1244.08 2683.13C1298.05 2682.14 1367.56 2749.7 1376.96 2811.34C1383.1 2850.3 1361.83 2867.56 1311.95 2864.1C1251.44 2859.67 1203.6 2830.08 1185.2 2785.2C1172.12 2753.64 1171.71 2733.43 1183.97 2711.73Z" fill="#63372C" fill-opacity="0.69"/>
<path d="M1211.37 2770.41C1226.91 2801.48 1307.45 2837.48 1323.81 2820.71C1341.39 2802.96 1317.27 2748.71 1280.88 2725.04C1250.62 2705.32 1226.5 2704.82 1213 2723.56C1201.15 2740.33 1200.74 2749.21 1211.37 2770.41ZM1218.32 2726.03C1234.68 2704.33 1284.56 2723.56 1308.68 2761.04C1330.35 2796.05 1329.94 2820.71 1307.05 2820.71C1284.56 2820.71 1224.45 2786.19 1215.87 2767.94C1209.32 2754.63 1210.55 2736.38 1218.32 2726.03Z" fill="#63372C" fill-opacity="0.69"/>
<path d="M1145.54 96.1606C1186.43 210.567 1195.83 232.758 1211.37 248.538C1241.22 278.619 1264.93 260.373 1295.6 183.445C1323.81 112.927 1362.65 3.45197 1360.61 0.493164C1357.75 -2.46561 1358.15 -2.95874 1338.12 54.2445C1305.41 148.926 1269.43 235.224 1257.98 246.072C1238.35 264.811 1219.14 257.414 1200.33 224.375C1192.15 210.074 1141.86 74.4628 1127.55 28.1085C1121.01 6.90388 1112.83 -6.90381 1113.65 3.45197C1113.65 5.42447 1127.96 47.3406 1145.54 96.1606Z" fill="#63372C" fill-opacity="0.69"/>
<path d="M1358.97 2179.15C1366.33 2230.43 1383.91 2254.1 1448.11 2300.46C1488.18 2329.06 1502.9 2350.76 1517.62 2399.58C1532.33 2447.9 1536.01 2457.27 1549.92 2479.46C1565.45 2504.12 1565.04 2494.75 1549.51 2467.13C1541.74 2453.33 1530.29 2423.74 1523.75 2401.55C1509.03 2350.26 1488.59 2321.66 1444.02 2289.61C1379.82 2243.75 1368.79 2225.5 1361.83 2153.5C1355.29 2082.99 1359.38 2046.49 1385.14 1956.25C1414.99 1848.75 1431.75 1767.87 1458.74 1599.22C1497.99 1352.17 1519.25 1249.59 1548.69 1159.84C1556.46 1135.68 1563 1113 1563 1109.05C1562.59 1098.2 1535.61 1180.56 1522.11 1232.83C1503.71 1304.82 1483.68 1409.86 1460.78 1555.83C1425.62 1777.24 1410.49 1849.73 1376.55 1965.13C1358.15 2026.77 1357.34 2031.7 1356.11 2090.88C1355.7 2124.9 1356.93 2164.85 1358.97 2179.15Z" fill="#63372C" fill-opacity="0.69"/>
</svg>
